<mxfile host="app.diagrams.net" agent="Mozilla/5.0 (Windows NT 10.0; Win64; x64) AppleWebKit/537.36 (KHTML, like Gecko) Chrome/137.0.0.0 Safari/537.36" version="27.1.6">
  <diagram name="Page-1" id="PO5vnCexuX4oIQsbna_C">
    <mxGraphModel dx="1281" dy="622" grid="1" gridSize="10" guides="1" tooltips="1" connect="1" arrows="1" fold="1" page="1" pageScale="1" pageWidth="827" pageHeight="1169" math="0" shadow="0">
      <root>
        <mxCell id="0" />
        <mxCell id="1" parent="0" />
        <mxCell id="aZrGvLYctEaFlBNBzQj1-12" value="" style="edgeStyle=orthogonalEdgeStyle;rounded=0;orthogonalLoop=1;jettySize=auto;html=1;" edge="1" parent="1" source="aZrGvLYctEaFlBNBzQj1-2" target="aZrGvLYctEaFlBNBzQj1-7">
          <mxGeometry relative="1" as="geometry" />
        </mxCell>
        <mxCell id="aZrGvLYctEaFlBNBzQj1-2" value="config" style="rounded=1;whiteSpace=wrap;html=1;absoluteArcSize=1;arcSize=14;strokeWidth=2;" vertex="1" parent="1">
          <mxGeometry x="230" y="60" width="100" height="40" as="geometry" />
        </mxCell>
        <mxCell id="aZrGvLYctEaFlBNBzQj1-22" style="edgeStyle=orthogonalEdgeStyle;rounded=0;orthogonalLoop=1;jettySize=auto;html=1;" edge="1" parent="1" source="aZrGvLYctEaFlBNBzQj1-3" target="aZrGvLYctEaFlBNBzQj1-20">
          <mxGeometry relative="1" as="geometry" />
        </mxCell>
        <mxCell id="aZrGvLYctEaFlBNBzQj1-3" value="load data" style="rounded=1;whiteSpace=wrap;html=1;absoluteArcSize=1;arcSize=14;strokeWidth=2;" vertex="1" parent="1">
          <mxGeometry x="290" y="260" width="100" height="40" as="geometry" />
        </mxCell>
        <mxCell id="aZrGvLYctEaFlBNBzQj1-21" style="edgeStyle=orthogonalEdgeStyle;rounded=0;orthogonalLoop=1;jettySize=auto;html=1;" edge="1" parent="1" source="aZrGvLYctEaFlBNBzQj1-5" target="aZrGvLYctEaFlBNBzQj1-20">
          <mxGeometry relative="1" as="geometry" />
        </mxCell>
        <mxCell id="aZrGvLYctEaFlBNBzQj1-5" value="data aquisition" style="rounded=1;whiteSpace=wrap;html=1;absoluteArcSize=1;arcSize=14;strokeWidth=2;" vertex="1" parent="1">
          <mxGeometry x="170" y="260" width="100" height="40" as="geometry" />
        </mxCell>
        <mxCell id="aZrGvLYctEaFlBNBzQj1-17" style="edgeStyle=orthogonalEdgeStyle;rounded=0;orthogonalLoop=1;jettySize=auto;html=1;entryX=0.5;entryY=0;entryDx=0;entryDy=0;" edge="1" parent="1" source="aZrGvLYctEaFlBNBzQj1-7" target="aZrGvLYctEaFlBNBzQj1-3">
          <mxGeometry relative="1" as="geometry" />
        </mxCell>
        <mxCell id="aZrGvLYctEaFlBNBzQj1-18" style="edgeStyle=orthogonalEdgeStyle;rounded=0;orthogonalLoop=1;jettySize=auto;html=1;entryX=0.5;entryY=0;entryDx=0;entryDy=0;" edge="1" parent="1" source="aZrGvLYctEaFlBNBzQj1-7" target="aZrGvLYctEaFlBNBzQj1-5">
          <mxGeometry relative="1" as="geometry" />
        </mxCell>
        <mxCell id="aZrGvLYctEaFlBNBzQj1-7" value="data on&amp;nbsp;&lt;div&gt;device?&lt;/div&gt;" style="strokeWidth=2;html=1;shape=mxgraph.flowchart.decision;whiteSpace=wrap;" vertex="1" parent="1">
          <mxGeometry x="230" y="125" width="100" height="100" as="geometry" />
        </mxCell>
        <mxCell id="aZrGvLYctEaFlBNBzQj1-25" style="edgeStyle=orthogonalEdgeStyle;rounded=0;orthogonalLoop=1;jettySize=auto;html=1;entryX=0;entryY=0.5;entryDx=0;entryDy=0;" edge="1" parent="1" source="aZrGvLYctEaFlBNBzQj1-15" target="aZrGvLYctEaFlBNBzQj1-24">
          <mxGeometry relative="1" as="geometry" />
        </mxCell>
        <mxCell id="aZrGvLYctEaFlBNBzQj1-15" value="data cleaning" style="rounded=1;whiteSpace=wrap;html=1;absoluteArcSize=1;arcSize=14;strokeWidth=2;" vertex="1" parent="1">
          <mxGeometry x="364" y="350" width="100" height="40" as="geometry" />
        </mxCell>
        <mxCell id="aZrGvLYctEaFlBNBzQj1-23" value="" style="edgeStyle=orthogonalEdgeStyle;rounded=0;orthogonalLoop=1;jettySize=auto;html=1;" edge="1" parent="1" source="aZrGvLYctEaFlBNBzQj1-20" target="aZrGvLYctEaFlBNBzQj1-15">
          <mxGeometry relative="1" as="geometry" />
        </mxCell>
        <mxCell id="aZrGvLYctEaFlBNBzQj1-20" value="&lt;div&gt;&lt;br&gt;&lt;/div&gt;data" style="strokeWidth=2;html=1;shape=mxgraph.flowchart.database;whiteSpace=wrap;" vertex="1" parent="1">
          <mxGeometry x="250" y="340" width="60" height="60" as="geometry" />
        </mxCell>
        <mxCell id="aZrGvLYctEaFlBNBzQj1-30" value="" style="edgeStyle=orthogonalEdgeStyle;rounded=0;orthogonalLoop=1;jettySize=auto;html=1;" edge="1" parent="1" source="aZrGvLYctEaFlBNBzQj1-24" target="aZrGvLYctEaFlBNBzQj1-29">
          <mxGeometry relative="1" as="geometry" />
        </mxCell>
        <mxCell id="aZrGvLYctEaFlBNBzQj1-24" value="schema creation" style="rounded=1;whiteSpace=wrap;html=1;absoluteArcSize=1;arcSize=14;strokeWidth=2;" vertex="1" parent="1">
          <mxGeometry x="490" y="350" width="100" height="40" as="geometry" />
        </mxCell>
        <mxCell id="aZrGvLYctEaFlBNBzQj1-29" value="indexing" style="rounded=1;whiteSpace=wrap;html=1;absoluteArcSize=1;arcSize=14;strokeWidth=2;" vertex="1" parent="1">
          <mxGeometry x="620" y="350" width="100" height="40" as="geometry" />
        </mxCell>
      </root>
    </mxGraphModel>
  </diagram>
</mxfile>
